<svg width="101" height="100" viewBox="0 0 101 100" fill="none" xmlns="http://www.w3.org/2000/svg">
<circle cx="50.0137" cy="50" r="50" fill="#29368C"/>
<path fill-rule="evenodd" clip-rule="evenodd" d="M66.1779 49.7446C63.2066 50.1323 57.0914 52.2124 56.4009 57.4318L56.4565 61.8433C55.6273 62.7292 53.91 64.8169 53.6738 66.0806C53.5086 66.9643 53.7597 66.9549 54.1989 66.9383C54.5448 66.9253 55.0072 66.9079 55.4751 67.3185C55.5477 67.3751 55.471 67.5535 55.3718 67.7845C55.2294 68.1159 55.0405 68.5555 55.1799 68.898C55.2609 69.0971 55.4663 69.1994 55.6556 69.2937C55.8751 69.403 56.0729 69.5016 56.0307 69.7277C56.0316 69.7992 55.9481 69.8889 55.8482 69.9964C55.7032 70.1523 55.5234 70.3457 55.5161 70.5747C55.5067 70.8709 55.7824 71.0273 56.0404 71.1737C56.2628 71.2999 56.4722 71.4186 56.4746 71.6131C56.4761 71.7332 56.4495 71.8911 56.4191 72.0715C56.343 72.5226 56.2432 73.1147 56.4998 73.6088C56.9853 74.5439 57.6674 74.5664 58.8833 74.6065C59.0304 74.6113 59.1854 74.6164 59.3487 74.6235C60.8621 74.6884 66.2107 74.572 68.6959 74.5056C70.616 74.0612 74.5678 72.0154 75.0137 67.3874L74.7899 49.6361C74.8346 42.0716 69.8796 26.7542 49.7022 26L49.7036 26.113C29.6223 27.169 24.8768 42.5078 25.0166 50.0581V67.8108C25.5209 72.4328 29.4986 74.4287 31.4244 74.8489C33.9105 74.8839 39.2608 74.9329 40.7735 74.8489C40.9367 74.8398 41.0916 74.8328 41.2386 74.8261C42.4541 74.7706 43.1359 74.7396 43.6097 73.7984C43.8601 73.3012 43.7528 72.7104 43.671 72.2602C43.6383 72.0802 43.6097 71.9226 43.6097 71.8026C43.6097 71.6081 43.8176 71.4867 44.0384 71.3577C44.2946 71.2081 44.5683 71.0482 44.5551 70.7521C44.545 70.5232 44.3628 70.3322 44.2158 70.1781C44.1145 70.0718 44.0299 69.9832 44.0299 69.9117C43.9848 69.6862 44.1814 69.5851 44.3995 69.473C44.5877 69.3764 44.7917 69.2715 44.8703 69.0714C45.0054 68.7271 44.8109 68.2899 44.6643 67.9603C44.5622 67.7307 44.4832 67.5532 44.5551 67.4957C45.0178 67.0793 45.4806 67.0908 45.8266 67.0995C46.266 67.1105 46.5172 67.1168 46.3409 66.2351C46.0888 64.9746 44.345 62.9087 43.5047 62.0333V57.6214C42.7483 52.4111 36.6067 50.4083 33.6304 50.0581C34.6389 38.0409 44.8353 34.5464 49.8074 34.3013V34.193C54.7824 34.3762 65.0182 37.7426 66.1779 49.7446Z" fill="#A7B2FF"/>
</svg>
