<svg width="101" height="100" viewBox="0 0 101 100" fill="none" xmlns="http://www.w3.org/2000/svg">
<circle cx="50.0137" cy="50" r="50" fill="#29368C"/>
<path d="M67.3594 60.5321C60.347 61.1741 51.1865 55.6144 47.4828 52.7543C49.2112 50.6556 59.705 43.9889 67.3594 44.9148C73.4828 45.6556 75.0137 50.4498 75.0137 52.7543C74.7174 58.5321 69.7873 60.3469 67.3594 60.5321Z" fill="#A7B2FF"/>
<path d="M25.0137 40.5682V68.099H39.8902V59.4571C42.7544 59.2595 44.17 56.1649 44.5198 54.6423L36.31 53.2842L44.5198 50.6299V48.5312H47.4828L46.0013 40.5682C45.0754 34.7657 43.4087 31.062 34.4581 31.0003C27.2976 30.9509 25.1783 37.3583 25.0137 40.5682Z" fill="#A7B2FF"/>
<path d="M53.5137 54C53.5137 54 55.7576 49.3376 58.0137 50C59.7812 50.5189 58.6952 53.7061 60.5137 54C62.5627 54.3311 61.9646 49.6688 64.0137 50C65.8322 50.2939 64.6782 53.8438 66.5137 54C68.4593 54.1656 67.6397 49.4515 69.5137 50C71.1148 50.4686 71.0137 54 71.0137 54" stroke="#29368C" stroke-linecap="round"/>
</svg>
