<svg width="139" height="39" viewBox="0 0 130 41" fill="none" xmlns="http://www.w3.org/2000/svg">
	<path d="M1.11868 29.861C-0.138948 32.0046 0.579273 34.7619 2.72287 36.0195C4.86646 37.2771 7.6237 36.5589 8.88132 34.4153L1.11868 29.861ZM34.5 5.13824L34.5131 0.638259L34.5 5.13824ZM69 32.1382L69.0645 36.6378L69 32.1382ZM102.5 5.13824L101.866 0.683073L102.5 5.13824ZM5 32.1382C8.88132 34.4153 8.88097 34.4159 8.88067 34.4164C8.88065 34.4164 8.88041 34.4168 8.88037 34.4169C8.88029 34.417 8.88045 34.4168 8.88085 34.4161C8.88164 34.4148 8.88339 34.4118 8.88608 34.4072C8.89145 34.3981 8.90059 34.3827 8.91342 34.3611C8.93909 34.318 8.97953 34.2503 9.03419 34.1597C9.14354 33.9786 9.30964 33.706 9.52809 33.3553C9.96526 32.6533 10.6105 31.6404 11.4287 30.4209C13.0705 27.9737 15.3822 24.734 18.083 21.5166C20.8032 18.2762 23.8088 15.1906 26.8214 12.9526C29.9149 10.6544 32.5039 9.63246 34.4869 9.63822L34.5131 0.638259C29.6781 0.624201 25.1705 2.9673 21.4543 5.72795C17.6573 8.54871 14.1401 12.2156 11.1898 15.7301C8.22022 19.2676 5.71364 22.7853 3.95489 25.4067C3.07275 26.7216 2.37212 27.8209 1.88848 28.5975C1.64652 28.986 1.45848 29.2944 1.32878 29.5093C1.26392 29.6168 1.21362 29.7009 1.17842 29.7601C1.16083 29.7896 1.147 29.813 1.13702 29.8299C1.13203 29.8383 1.128 29.8452 1.12494 29.8504C1.12341 29.853 1.12212 29.8552 1.12108 29.8569C1.12056 29.8578 1.11996 29.8589 1.11969 29.8593C1.11916 29.8602 1.11868 29.861 5 32.1382ZM34.4869 9.63822C40.193 9.65481 43.2862 13.892 47.9636 21.1795C51.9889 27.451 57.6161 36.8018 69.0645 36.6378L68.9355 27.6387C63.2771 27.7198 60.2086 23.5955 55.5377 16.3181C51.5189 10.0567 45.9155 0.671412 34.5131 0.638259L34.4869 9.63822ZM69.0645 36.6378C80.1666 36.4787 85.5858 28.0115 89.5798 21.8958C94.0526 15.047 97.1806 10.4401 103.134 9.59341L101.866 0.683073C91.184 2.20235 85.9626 10.9751 82.0444 16.9746C77.6475 23.7072 74.6345 27.5571 68.9355 27.6387L69.0645 36.6378ZM103.134 9.59341C105.903 9.19948 108.916 10.0648 112.167 12.1412C115.419 14.2184 118.556 17.2911 121.351 20.6302C124.123 23.9428 126.425 27.3547 128.04 29.9566C128.844 31.2519 129.469 32.3328 129.89 33.0821C130.1 33.4565 130.258 33.7471 130.362 33.9394C130.413 34.0355 130.451 34.1069 130.475 34.1518C130.487 34.1742 130.495 34.19 130.5 34.199C130.502 34.2035 130.503 34.2062 130.504 34.2072C130.504 34.2077 130.504 34.2078 130.504 34.2074C130.504 34.2072 130.504 34.2066 130.504 34.2065C130.503 34.2058 130.503 34.2049 134.5 32.1382C138.497 30.0714 138.497 30.0703 138.496 30.0691C138.496 30.0686 138.495 30.0673 138.495 30.0662C138.494 30.0641 138.492 30.0615 138.491 30.0584C138.487 30.0523 138.483 30.0444 138.478 30.0348C138.468 30.0155 138.454 29.9891 138.437 29.9561C138.402 29.8899 138.353 29.7966 138.289 29.678C138.161 29.4409 137.977 29.1025 137.739 28.6778C137.262 27.8292 136.569 26.6327 135.686 25.21C133.927 22.376 131.379 18.5899 128.252 14.8538C125.148 11.1441 121.335 7.31745 117.011 4.55627C112.687 1.79419 107.499 -0.117965 101.866 0.683073L103.134 9.59341Z" fill="#5243FF" />
</svg>
