<?xml version="1.0" encoding="utf-8"?><!-- Uploaded to: SVG Repo, www.svgrepo.com, Generator: SVG Repo Mixer Tools -->
<svg width="800px" height="800px" viewBox="0 0 32 32" fill="none" xmlns="http://www.w3.org/2000/svg">
<path d="M23 2.01001H9C7.34315 2.01001 6 3.35316 6 5.01001V27.01C6 28.6669 7.34315 30.01 9 30.01H23C24.6569 30.01 26 28.6669 26 27.01V5.01001C26 3.35316 24.6569 2.01001 23 2.01001Z" fill="#CFD8DC"/>
<path d="M21 25.9999C20.8684 26.0007 20.7379 25.9755 20.6161 25.9257C20.4943 25.876 20.3834 25.8026 20.29 25.7099L17.29 22.7099C17.1037 22.5226 16.9992 22.2691 16.9992 22.0049C16.9992 21.7408 17.1037 21.4873 17.29 21.2999C17.383 21.2062 17.4936 21.1318 17.6154 21.0811C17.7373 21.0303 17.868 21.0042 18 21.0042C18.132 21.0042 18.2627 21.0303 18.3846 21.0811C18.5064 21.1318 18.617 21.2062 18.71 21.2999L21.71 24.2999C21.8037 24.3929 21.8781 24.5035 21.9289 24.6254C21.9797 24.7472 22.0058 24.8779 22.0058 25.0099C22.0058 25.142 21.9797 25.2727 21.9289 25.3945C21.8781 25.5164 21.8037 25.627 21.71 25.7199C21.5197 25.9035 21.2644 26.0042 21 25.9999Z" fill="#E53935"/>
<path d="M18 25.9999C17.8684 26.0007 17.7379 25.9755 17.6161 25.9257C17.4943 25.8759 17.3834 25.8026 17.29 25.7099C17.1963 25.617 17.1219 25.5064 17.0711 25.3845C17.0203 25.2627 16.9942 25.132 16.9942 24.9999C16.9942 24.8679 17.0203 24.7372 17.0711 24.6154C17.1219 24.4935 17.1963 24.3829 17.29 24.2899L20.29 21.2899C20.383 21.1962 20.4936 21.1218 20.6154 21.071C20.7373 21.0203 20.868 20.9941 21 20.9941C21.132 20.9941 21.2627 21.0203 21.3846 21.071C21.5064 21.1218 21.617 21.1962 21.71 21.2899C21.8963 21.4773 22.0008 21.7308 22.0008 21.9949C22.0008 22.2591 21.8963 22.5126 21.71 22.6999L18.71 25.6999C18.6174 25.7944 18.5069 25.8696 18.3851 25.9211C18.2632 25.9726 18.1323 25.9994 18 25.9999Z" fill="#E53935"/>
<path d="M12 26H11.94C11.7629 25.9896 11.5918 25.9322 11.4442 25.8338C11.2965 25.7354 11.1778 25.5995 11.1 25.44L10.1 23.44C9.99153 23.2039 9.97925 22.9348 10.0658 22.6897C10.1523 22.4447 10.3308 22.2429 10.5635 22.1272C10.7962 22.0115 11.0648 21.991 11.3124 22.0699C11.56 22.1488 11.7672 22.321 11.89 22.55L12.12 23.01L13.17 21.44C13.3237 21.2358 13.5497 21.0981 13.8017 21.0553C14.0537 21.0125 14.3125 21.0678 14.525 21.2099C14.7375 21.3519 14.8875 21.57 14.9443 21.8193C15.001 22.0685 14.9601 22.33 14.83 22.55L12.83 25.55C12.7394 25.6876 12.6163 25.8007 12.4715 25.8792C12.3267 25.9577 12.1647 25.9992 12 26Z" fill="#689F38"/>
<path d="M26 17.01H6V19.01H26V17.01Z" fill="#304046"/>
<path d="M14 11H11C10.7348 11 10.4804 10.8946 10.2929 10.7071C10.1054 10.5196 10 10.2652 10 10V7C10 6.73478 10.1054 6.48043 10.2929 6.29289C10.4804 6.10536 10.7348 6 11 6H14C14.2652 6 14.5196 6.10536 14.7071 6.29289C14.8946 6.48043 15 6.73478 15 7V10C15 10.2652 14.8946 10.5196 14.7071 10.7071C14.5196 10.8946 14.2652 11 14 11ZM12 9H13V8H12V9Z" fill="#1565C0"/>
<path d="M21 15H11C10.7348 15 10.4804 14.8946 10.2929 14.7071C10.1054 14.5196 10 14.2652 10 14C10 13.7348 10.1054 13.4804 10.2929 13.2929C10.4804 13.1054 10.7348 13 11 13H21C21.2652 13 21.5196 13.1054 21.7071 13.2929C21.8946 13.4804 22 13.7348 22 14C22 14.2652 21.8946 14.5196 21.7071 14.7071C21.5196 14.8946 21.2652 15 21 15Z" fill="#304046"/>
<path d="M21 8H18C17.7348 8 17.4804 7.89464 17.2929 7.70711C17.1054 7.51957 17 7.26522 17 7C17 6.73478 17.1054 6.48043 17.2929 6.29289C17.4804 6.10536 17.7348 6 18 6H21C21.2652 6 21.5196 6.10536 21.7071 6.29289C21.8946 6.48043 22 6.73478 22 7C22 7.26522 21.8946 7.51957 21.7071 7.70711C21.5196 7.89464 21.2652 8 21 8Z" fill="#304046"/>
<path d="M21 11H18C17.7348 11 17.4804 10.8946 17.2929 10.7071C17.1054 10.5196 17 10.2652 17 10C17 9.73478 17.1054 9.48043 17.2929 9.29289C17.4804 9.10536 17.7348 9 18 9H21C21.2652 9 21.5196 9.10536 21.7071 9.29289C21.8946 9.48043 22 9.73478 22 10C22 10.2652 21.8946 10.5196 21.7071 10.7071C21.5196 10.8946 21.2652 11 21 11Z" fill="#304046"/>
<path d="M9 2C8.20435 2 7.44129 2.31607 6.87868 2.87868C6.31607 3.44129 6 4.20435 6 5V27C6 27.7956 6.31607 28.5587 6.87868 29.1213C7.44129 29.6839 8.20435 30 9 30H16V2H9Z" fill="#EEEEEE"/>
<path d="M13.17 21.45L12.12 23L11.89 22.54C11.7672 22.311 11.56 22.1388 11.3124 22.0599C11.0648 21.9809 10.7962 22.0015 10.5635 22.1172C10.3308 22.2329 10.1523 22.4347 10.0658 22.6797C9.97925 22.9248 9.99153 23.1939 10.1 23.43L11.1 25.43C11.1778 25.5895 11.2965 25.7254 11.4442 25.8238C11.5918 25.9222 11.7629 25.9796 11.94 25.99H12C12.1647 25.9892 12.3267 25.9477 12.4715 25.8692C12.6163 25.7907 12.7394 25.6776 12.83 25.54L14.83 22.54C14.9601 22.32 15.001 22.0585 14.9443 21.8092C14.8875 21.56 14.7375 21.3419 14.525 21.1999C14.3125 21.0578 14.0537 21.0024 13.8017 21.0453C13.5497 21.0881 13.3237 21.2258 13.17 21.43V21.45Z" fill="#689F38"/>
<path d="M16 17.01H6V19.01H16V17.01Z" fill="#616161"/>
<path d="M14 11H11C10.7348 11 10.4804 10.8946 10.2929 10.7071C10.1054 10.5196 10 10.2652 10 10V7C10 6.73478 10.1054 6.48043 10.2929 6.29289C10.4804 6.10536 10.7348 6 11 6H14C14.2652 6 14.5196 6.10536 14.7071 6.29289C14.8946 6.48043 15 6.73478 15 7V10C15 10.2652 14.8946 10.5196 14.7071 10.7071C14.5196 10.8946 14.2652 11 14 11ZM12 9H13V8H12V9Z" fill="#1565C0"/>
<path d="M11 13C10.7348 13 10.4804 13.1054 10.2929 13.2929C10.1054 13.4804 10 13.7348 10 14C10 14.2652 10.1054 14.5196 10.2929 14.7071C10.4804 14.8946 10.7348 15 11 15H16V13H11Z" fill="#616161"/>
<path d="M23 2H9C8.20435 2 7.44129 2.31607 6.87868 2.87868C6.31607 3.44129 6 4.20435 6 5V27C6 27.7956 6.31607 28.5587 6.87868 29.1213C7.44129 29.6839 8.20435 30 9 30H23C23.7956 30 24.5587 29.6839 25.1213 29.1213C25.6839 28.5587 26 27.7956 26 27V5C26 4.20435 25.6839 3.44129 25.1213 2.87868C24.5587 2.31607 23.7956 2 23 2ZM24 27C24 27.2652 23.8946 27.5196 23.7071 27.7071C23.5196 27.8946 23.2652 28 23 28H9C8.73478 28 8.48043 27.8946 8.29289 27.7071C8.10536 27.5196 8 27.2652 8 27V5C8 4.73478 8.10536 4.48043 8.29289 4.29289C8.48043 4.10536 8.73478 4 9 4H23C23.2652 4 23.5196 4.10536 23.7071 4.29289C23.8946 4.48043 24 4.73478 24 5V27Z" fill="#263238"/>
</svg>