<?xml version="1.0" encoding="utf-8"?><!-- Uploaded to: SVG Repo, www.svgrepo.com, Generator: SVG Repo Mixer Tools -->
<svg width="800px" height="800px" viewBox="0 0 32 32" fill="none" xmlns="http://www.w3.org/2000/svg">
<path d="M27 2H5C3.34315 2 2 3.34315 2 5V19C2 20.6569 3.34315 22 5 22H27C28.6569 22 30 20.6569 30 19V5C30 3.34315 28.6569 2 27 2Z" fill="#1565C0"/>
<path d="M14.09 11.15C14.5183 10.734 14.8128 10.1997 14.9357 9.61538C15.0587 9.03108 15.0044 8.42339 14.78 7.8701C14.5555 7.3168 14.1711 6.84306 13.6758 6.50952C13.1806 6.17598 12.5971 5.9978 12 5.9978C11.4029 5.9978 10.8194 6.17598 10.3242 6.50952C9.82892 6.84306 9.44447 7.3168 9.22002 7.8701C8.99557 8.42339 8.94134 9.03108 9.06426 9.61538C9.18717 10.1997 9.48165 10.734 9.91 11.15C7.68 11.75 6 14.14 6 17C6 17.2652 6.10536 17.5196 6.29289 17.7071C6.48043 17.8946 6.73478 18 7 18C7.26522 18 7.51957 17.8946 7.70711 17.7071C7.89464 17.5196 8 17.2652 8 17C8 14.79 9.35 13 11 13H13C14.65 13 16 14.79 16 17C16 17.2652 16.1054 17.5196 16.2929 17.7071C16.4804 17.8946 16.7348 18 17 18C17.2652 18 17.5196 17.8946 17.7071 17.7071C17.8946 17.5196 18 17.2652 18 17C18 14.14 16.32 11.75 14.09 11.15ZM12 7.99999C12.1978 7.99999 12.3911 8.05864 12.5556 8.16852C12.72 8.2784 12.8482 8.43458 12.9239 8.6173C12.9996 8.80003 13.0194 9.0011 12.9808 9.19508C12.9422 9.38906 12.847 9.56724 12.7071 9.70709C12.5673 9.84695 12.3891 9.94219 12.1951 9.98077C12.0011 10.0194 11.8 9.99955 11.6173 9.92387C11.4346 9.84818 11.2784 9.72001 11.1685 9.55556C11.0586 9.39111 11 9.19777 11 8.99999C11 8.73477 11.1054 8.48042 11.2929 8.29288C11.4804 8.10534 11.7348 7.99999 12 7.99999Z" fill="#E64A19"/>
<path d="M25 8H22C21.7348 8 21.4804 7.89464 21.2929 7.70711C21.1054 7.51957 21 7.26522 21 7C21 6.73478 21.1054 6.48043 21.2929 6.29289C21.4804 6.10536 21.7348 6 22 6H25C25.2652 6 25.5196 6.10536 25.7071 6.29289C25.8946 6.48043 26 6.73478 26 7C26 7.26522 25.8946 7.51957 25.7071 7.70711C25.5196 7.89464 25.2652 8 25 8Z" fill="#E0E0E0"/>
<path d="M25 12H19C18.7348 12 18.4804 11.8946 18.2929 11.7071C18.1054 11.5196 18 11.2652 18 11C18 10.7348 18.1054 10.4804 18.2929 10.2929C18.4804 10.1054 18.7348 10 19 10H25C25.2652 10 25.5196 10.1054 25.7071 10.2929C25.8946 10.4804 26 10.7348 26 11C26 11.2652 25.8946 11.5196 25.7071 11.7071C25.5196 11.8946 25.2652 12 25 12Z" fill="#E0E0E0"/>
<path d="M25 16H22C21.7348 16 21.4804 15.8946 21.2929 15.7071C21.1054 15.5196 21 15.2652 21 15C21 14.7348 21.1054 14.4804 21.2929 14.2929C21.4804 14.1054 21.7348 14 22 14H25C25.2652 14 25.5196 14.1054 25.7071 14.2929C25.8946 14.4804 26 14.7348 26 15C26 15.2652 25.8946 15.5196 25.7071 15.7071C25.5196 15.8946 25.2652 16 25 16Z" fill="#E0E0E0"/>
<path d="M27 24H5C4.20435 24 3.44129 24.3161 2.87868 24.8787C2.31607 25.4413 2 26.2044 2 27C2 27.7956 2.31607 28.5587 2.87868 29.1213C3.44129 29.6839 4.20435 30 5 30H27C27.7956 30 28.5587 29.6839 29.1213 29.1213C29.6839 28.5587 30 27.7956 30 27C30 26.2044 29.6839 25.4413 29.1213 24.8787C28.5587 24.3161 27.7956 24 27 24Z" fill="#37474F"/>
<path d="M5 2C4.20435 2 3.44129 2.31607 2.87868 2.87868C2.31607 3.44129 2 4.20435 2 5V19C2 19.7956 2.31607 20.5587 2.87868 21.1213C3.44129 21.6839 4.20435 22 5 22H16V2H5Z" fill="#1E88E5"/>
<path d="M14.09 11.15C14.5183 10.734 14.8128 10.1997 14.9357 9.61538C15.0587 9.03108 15.0044 8.42339 14.78 7.8701C14.5555 7.3168 14.1711 6.84306 13.6758 6.50952C13.1806 6.17598 12.5971 5.9978 12 5.9978C11.4029 5.9978 10.8194 6.17598 10.3242 6.50952C9.82892 6.84306 9.44447 7.3168 9.22002 7.8701C8.99557 8.42339 8.94134 9.03108 9.06426 9.61538C9.18717 10.1997 9.48165 10.734 9.91 11.15C7.68 11.75 6 14.14 6 17C6 17.2652 6.10536 17.5196 6.29289 17.7071C6.48043 17.8946 6.73478 18 7 18C7.26522 18 7.51957 17.8946 7.70711 17.7071C7.89464 17.5196 8 17.2652 8 17C8 14.79 9.35 13 11 13H13C14.65 13 16 14.79 16 17V12.23C15.4593 11.7218 14.8042 11.3514 14.09 11.15ZM12 9.99999C11.8022 9.99999 11.6089 9.94134 11.4444 9.83146C11.28 9.72158 11.1518 9.5654 11.0761 9.38267C11.0004 9.19995 10.9806 8.99888 11.0192 8.8049C11.0578 8.61092 11.153 8.43273 11.2929 8.29288C11.4327 8.15303 11.6109 8.05779 11.8049 8.0192C11.9989 7.98062 12.2 8.00042 12.3827 8.07611C12.5654 8.1518 12.7216 8.27997 12.8315 8.44442C12.9414 8.60887 13 8.80221 13 8.99999C13 9.2652 12.8946 9.51956 12.7071 9.70709C12.5196 9.89463 12.2652 9.99999 12 9.99999Z" fill="#FF7043"/>
<path d="M5 24C4.20435 24 3.44129 24.3161 2.87868 24.8787C2.31607 25.4413 2 26.2044 2 27C2 27.7956 2.31607 28.5587 2.87868 29.1213C3.44129 29.6839 4.20435 30 5 30H16V24H5Z" fill="#455A64"/>
<path d="M27 2H5C4.20435 2 3.44129 2.31607 2.87868 2.87868C2.31607 3.44129 2 4.20435 2 5V19C2 19.7956 2.31607 20.5587 2.87868 21.1213C3.44129 21.6839 4.20435 22 5 22H27C27.7956 22 28.5587 21.6839 29.1213 21.1213C29.6839 20.5587 30 19.7956 30 19V5C30 4.20435 29.6839 3.44129 29.1213 2.87868C28.5587 2.31607 27.7956 2 27 2ZM28 19C28 19.2652 27.8946 19.5196 27.7071 19.7071C27.5196 19.8946 27.2652 20 27 20H5C4.73478 20 4.48043 19.8946 4.29289 19.7071C4.10536 19.5196 4 19.2652 4 19V5C4 4.73478 4.10536 4.48043 4.29289 4.29289C4.48043 4.10536 4.73478 4 5 4H27C27.2652 4 27.5196 4.10536 27.7071 4.29289C27.8946 4.48043 28 4.73478 28 5V19Z" fill="#263238"/>
<path d="M27 24H5C4.20435 24 3.44129 24.3161 2.87868 24.8787C2.31607 25.4413 2 26.2044 2 27C2 27.7956 2.31607 28.5587 2.87868 29.1213C3.44129 29.6839 4.20435 30 5 30H27C27.7956 30 28.5587 29.6839 29.1213 29.1213C29.6839 28.5587 30 27.7956 30 27C30 26.2044 29.6839 25.4413 29.1213 24.8787C28.5587 24.3161 27.7956 24 27 24ZM27 28H5C4.73478 28 4.48043 27.8946 4.29289 27.7071C4.10536 27.5196 4 27.2652 4 27C4 26.7348 4.10536 26.4804 4.29289 26.2929C4.48043 26.1054 4.73478 26 5 26H27C27.2652 26 27.5196 26.1054 27.7071 26.2929C27.8946 26.4804 28 26.7348 28 27C28 27.2652 27.8946 27.5196 27.7071 27.7071C27.5196 27.8946 27.2652 28 27 28Z" fill="#263238"/>
</svg>