<svg width="50" height="50" viewBox="0 0 67 72" fill="none" xmlns="http://www.w3.org/2000/svg">
<g filter="url(#filter0_d_391_60)">
<path d="M35.0774 42.6693C35.3255 42.8272 35.4833 42.94 35.6412 43.0527C37.0622 44.2707 38.5057 45.4886 39.9266 46.7066C40.3326 47.0449 40.7161 47.3833 41.0995 47.7667C41.325 47.9922 41.528 48.2629 41.7085 48.5335C42.1145 49.1876 42.0017 49.7064 41.3702 50.18C41.1446 50.3379 40.9191 50.4733 40.671 50.586C39.3402 51.2852 37.9644 51.8491 36.5434 52.3228C36.3404 52.3904 36.1374 52.4581 35.8893 52.5483C35.9796 52.6836 36.0472 52.7964 36.1374 52.9092C38.8666 55.7511 41.325 58.8185 43.8963 61.7958C44.0091 61.9311 44.1218 62.0664 44.2346 62.2243C44.3699 62.4724 44.3699 62.7205 44.1895 62.9461C44.0316 63.1716 43.7835 63.2618 43.5129 63.2167C43.3099 63.1716 43.1069 63.0814 42.9039 62.9912C42.543 62.8107 42.1596 62.6077 41.7987 62.4048C41.6183 62.3145 41.4378 62.2243 41.2799 62.1341C40.4454 61.6379 39.6109 61.1417 38.7764 60.6229C38.235 60.2846 37.6712 59.9237 37.175 59.5177C34.6037 57.4653 32.055 55.4128 29.6642 53.1573C28.4914 52.0295 27.2057 51.0371 25.9652 49.9996C25.8524 49.8868 25.7171 49.7966 25.6043 49.6838C25.266 49.2779 25.4013 48.7816 25.9201 48.6238C26.078 48.5787 26.2359 48.5561 26.3938 48.5561C27.4538 48.5335 28.5139 48.511 29.574 48.511C29.7544 48.511 29.9123 48.511 30.2055 48.511C29.6868 47.8795 29.2582 47.3156 28.7846 46.7743C28.1756 46.0751 27.5666 45.3984 26.9576 44.6992C26.8223 44.5413 26.6644 44.5188 26.484 44.5188C23.1008 44.6767 19.7852 44.2707 16.5148 43.4587C13.1315 42.6242 10.1769 40.91 7.53794 38.6545C5.9591 37.3013 5.0118 35.5645 4.53815 33.5797C4.40282 33.0158 4.38026 32.4294 4.3126 31.8655C3.90661 28.7981 4.49304 25.9111 5.84633 23.1594C6.9064 21.0392 8.23714 19.1446 9.79342 17.3628C12.0715 14.7239 14.6878 12.4684 17.5072 10.4159C22.1986 6.98759 27.2057 4.16823 32.6866 2.22852C35.5961 1.191 38.5508 0.446691 41.6183 0.153479C45.2947 -0.207398 48.926 0.0407047 52.4671 1.191C55.9857 2.3413 58.6471 4.55167 60.4741 7.75445C61.5567 9.6265 62.301 11.6339 62.6168 13.7766C63.0228 16.7313 62.5266 19.5506 61.2409 22.2572C60.3162 24.1744 59.1208 25.9111 57.8126 27.5576C52.4671 34.3466 45.6781 39.1056 37.4907 41.8799C36.8592 42.0829 36.2277 42.3084 35.5961 42.5114C35.4833 42.5114 35.3706 42.5565 35.0774 42.6693Z" fill="#4D92FF"/>
</g>
<path d="M19.6048 4.01033C19.4018 4.25844 19.2664 4.43887 19.1086 4.59676C17.9808 5.7245 16.8531 6.87479 15.7028 8.00253C13.8758 9.78436 12.0038 11.4985 10.1994 13.3029C8.03414 15.4456 6.2072 17.859 4.76369 20.5656C3.32018 23.227 2.44055 26.0915 2.30522 29.1589C2.19244 31.4595 2.4631 33.7376 3.25252 35.9254C3.45551 36.4893 3.74873 37.0531 4.01938 37.5944C4.19982 37.9779 4.38026 38.3388 4.53814 38.7222C4.67347 39.038 4.58325 39.2635 4.38026 39.3988C4.15471 39.5342 3.90661 39.4665 3.68106 39.1958C3.59084 39.0831 3.50062 38.9703 3.43296 38.835C2.23755 37.1208 1.60602 35.2036 1.2677 33.1737C0.478279 28.3695 1.47069 23.8811 3.77128 19.6634C5.12457 17.1823 6.79363 14.9494 8.73334 12.942C11.2144 10.3708 13.8984 8.00253 16.6275 5.70194C17.2591 5.18318 17.9357 4.75464 18.6123 4.30355C18.8604 4.12311 19.1537 3.98778 19.6048 4.01033Z" fill="#4D92FF"/>
<path d="M66 13.8442C65.9774 16.3929 65.391 18.8288 64.4888 21.1745C63.3611 24.1292 61.8048 26.8358 59.7523 29.2492C58.9178 30.219 58.0381 31.1663 57.181 32.0911C57.0457 32.249 56.8653 32.4068 56.7074 32.5196C56.4142 32.7452 56.1661 32.7677 55.9856 32.6098C55.8052 32.4294 55.8052 32.1813 56.0307 31.8881C56.121 31.7527 56.2337 31.64 56.3465 31.5272C57.2713 30.4446 58.2186 29.3619 59.0982 28.2568C61.6469 25.0314 63.4062 21.4001 64.2858 17.3628C64.8046 14.9494 64.7369 12.5135 64.2181 10.1227C63.9249 8.79195 63.2708 7.59655 62.6167 6.4237C61.8499 5.0253 60.9251 3.73967 59.8199 2.58938C59.5493 2.29617 59.3012 2.00295 59.0531 1.68719C58.9403 1.55186 58.8501 1.39397 58.7599 1.23609C58.6697 1.05565 58.5343 0.875213 58.7148 0.694774C58.8726 0.536891 59.0756 0.62711 59.211 0.717329C59.5718 0.942877 59.9102 1.14587 60.2259 1.41653C61.895 2.79237 63.1806 4.48398 64.1279 6.40114C64.7595 7.66421 65.4361 8.94983 65.6391 10.3708C65.7744 11.5211 65.8646 12.6714 66 13.8442Z" fill="#4D92FF"/>
<defs>
<filter id="filter0_d_391_60" x="0.186035" y="0" width="66.5688" height="71.228" filterUnits="userSpaceOnUse" color-interpolation-filters="sRGB">
<feFlood flood-opacity="0" result="BackgroundImageFix"/>
<feColorMatrix in="SourceAlpha" type="matrix" values="0 0 0 0 0 0 0 0 0 0 0 0 0 0 0 0 0 0 127 0" result="hardAlpha"/>
<feOffset dy="4"/>
<feGaussianBlur stdDeviation="2"/>
<feComposite in2="hardAlpha" operator="out"/>
<feColorMatrix type="matrix" values="0 0 0 0 0 0 0 0 0 0 0 0 0 0 0 0 0 0 0.25 0"/>
<feBlend mode="normal" in2="BackgroundImageFix" result="effect1_dropShadow_391_60"/>
<feBlend mode="normal" in="SourceGraphic" in2="effect1_dropShadow_391_60" result="shape"/>
</filter>
</defs>
</svg>
