<svg width="100%" height="auto" viewBox="0 0 95 138" fill="none" xmlns="http://www.w3.org/2000/svg">
<path fill-rule="evenodd" clip-rule="evenodd" d="M12.4767 121.705C13.5737 117.68 14.3874 116.143 16.1979 114.7L27.7992 106.163H67.638L79.4582 114.481C81.8876 117.093 82.7348 118.65 82.7416 121.705H82.1702C89.5237 123.426 95 130.025 95 137.903H0C0 130.025 5.47626 123.426 12.8298 121.705H12.4767Z" fill="#727FD7"/>
<path fill-rule="evenodd" clip-rule="evenodd" d="M32.0712 89.3088L37.2121 59.3204H58.007L63.1478 89.3088H72.0163C76.7311 89.3088 80.5532 93.1309 80.5532 97.8456C80.5532 102.56 76.7311 106.382 72.0163 106.382H23.4219C18.7071 106.382 14.885 102.56 14.885 97.8456C14.885 93.1309 18.7071 89.3088 23.4219 89.3088H32.0712Z" fill="#727FD7"/>
<rect x="25.3916" y="38.5253" width="44.6544" height="21.0138" rx="10.5069" fill="#727FD7"/>
<path d="M25.3916 49.0322C25.3916 43.2294 30.0957 38.5253 35.8985 38.5253H48.1566V59.5391H35.8985C30.0957 59.5391 25.3916 54.835 25.3916 49.0322Z" fill="#A3ACEA"/>
<path d="M32.4068 26.6421C31.7265 23.5245 34.1009 20.576 37.2918 20.576H59.5797C62.8705 20.576 65.2639 23.7001 64.4073 26.8775L61.2673 38.5254H35.0001L32.4068 26.6421Z" fill="#727FD7"/>
<path fill-rule="evenodd" clip-rule="evenodd" d="M35.8987 20.576H59.407C58.7792 14.4244 53.7562 9.63135 47.6529 9.63135C41.5495 9.63135 36.5265 14.4244 35.8987 20.576Z" fill="#727FD7"/>
<circle cx="47.7191" cy="5.69124" r="5.69124" fill="#727FD7"/>
</svg>
