<svg width="100%" height="auto" viewBox="0 0 1728 840" fill="none" xmlns="http://www.w3.org/2000/svg">
<rect width="1728" height="840" fill="#29368C"/>
<mask id="mask0_191_83" style="mask-type:alpha" maskUnits="userSpaceOnUse" x="0" y="351" width="554" height="489">
<rect y="351" width="554" height="489" fill="#727FD7"/>
</mask>
<g mask="url(#mask0_191_83)">
<path d="M204.697 912.315C204.697 912.315 139.987 837.412 142.197 773.932C144.252 714.93 200.865 708.086 204.697 649.25C209.119 581.359 137.776 565.056 142.197 497.166C146.03 438.33 210.933 430.932 204.697 372.484C199.502 323.779 142.197 280 142.197 280" stroke="#171F52" stroke-width="14"/>
<path d="M204.499 913C204.499 913 127.608 838.016 130.235 774.467C132.676 715.401 199.945 708.549 204.499 649.65C209.753 581.686 124.98 565.365 130.235 497.401C134.788 438.501 211.908 431.096 204.499 372.584C198.325 323.827 146 282.055 146 282.055" stroke="#171F52" stroke-width="14"/>
<rect y="351" width="554" height="489" fill="#727FD7"/>
<path d="M422.697 922.315C422.697 922.315 357.987 847.412 360.197 783.932C362.252 724.93 418.865 718.086 422.697 659.25C427.119 591.359 355.776 575.056 360.197 507.166C364.03 448.33 428.933 440.932 422.697 382.484C417.502 333.779 360.197 290 360.197 290" stroke="#171F52" stroke-width="14"/>
<path d="M422.499 923C422.499 923 345.608 848.016 348.235 784.467C350.676 725.401 417.945 718.549 422.499 659.65C427.753 591.686 342.98 575.365 348.235 507.401C352.788 448.501 429.908 441.096 422.499 382.584C416.325 333.827 364 292.055 364 292.055" stroke="#171F52" stroke-width="14"/>
<path d="M422.499 923C422.499 923 345.608 848.016 348.235 784.467C350.676 725.401 417.945 718.549 422.499 659.65C427.753 591.686 342.98 575.365 348.235 507.401C352.788 448.501 429.908 441.096 422.499 382.584C416.325 333.827 364 292.055 364 292.055" stroke="#171F52" stroke-width="14"/>
<path d="M313.697 912.315C313.697 912.315 248.987 837.412 251.197 773.932C253.252 714.93 309.865 708.086 313.697 649.25C318.119 581.359 246.776 565.056 251.197 497.166C255.03 438.33 319.933 430.932 313.697 372.484C308.502 323.779 251.197 280 251.197 280" stroke="#171F52" stroke-width="14"/>
<path d="M313.499 913C313.499 913 236.608 838.016 239.235 774.467C241.676 715.401 308.945 708.549 313.499 649.65C318.753 581.686 233.98 565.365 239.235 497.401C243.788 438.501 320.908 431.096 313.499 372.584C307.325 323.827 255 282.055 255 282.055" stroke="#171F52" stroke-width="14"/>
<path d="M313.499 913C313.499 913 236.608 838.016 239.235 774.467C241.676 715.401 308.945 708.549 313.499 649.65C318.753 581.686 233.98 565.365 239.235 497.401C243.788 438.501 320.908 431.096 313.499 372.584C307.325 323.827 255 282.055 255 282.055" stroke="#171F52" stroke-width="14"/>
<path d="M199.499 904.945C199.499 904.945 122.608 829.961 125.235 766.412C127.676 707.346 194.945 700.494 199.499 641.595C204.753 573.631 119.98 557.31 125.235 489.346C129.788 430.446 206.908 423.04 199.499 364.529C193.325 315.772 141 274 141 274" stroke="#171F52" stroke-width="14"/>
<path d="M204.499 913C204.499 913 127.608 838.016 130.235 774.467C132.676 715.401 199.945 708.549 204.499 649.65C209.753 581.686 124.98 565.365 130.235 497.401C134.788 438.501 211.908 431.096 204.499 372.584C198.325 323.827 146 282.055 146 282.055" stroke="#171F52" stroke-width="14"/>
</g>
<rect x="913" width="815" height="351" fill="#DF4E38"/>
<path fill-rule="evenodd" clip-rule="evenodd" d="M913 351V2H1728C1728 182.999 1371.24 332.003 913 351Z" fill="#F8B61B"/>
<path d="M147.104 151.32V179.352H113.12V151.32H97.76V219H113.12V192.792H147.104V219H162.464V151.32H147.104ZM224.401 219H239.953L220.369 151.32H188.689L169.201 219H184.753L190.801 197.304H218.257L224.401 219ZM194.545 183.864L202.609 155.16H206.449L214.513 183.864H194.545ZM240.988 185.112C240.988 204.888 254.236 219.96 275.74 219.96C294.652 219.96 307.132 209.592 309.148 192.792H293.788C292.252 201.72 285.148 206.52 275.932 206.52C264.124 206.52 256.348 199.128 256.348 185.112C256.348 171.192 264.124 163.8 275.932 163.8C285.148 163.8 292.252 168.504 293.788 177.432H309.148C307.132 160.728 294.652 150.36 275.74 150.36C254.236 150.36 240.988 165.432 240.988 185.112ZM383.935 151.32H361.471L333.151 175.32V151.32H317.791V219H333.151V195.096L361.471 219H383.935L343.135 185.208L383.935 151.32ZM442.933 219H458.485L438.901 151.32H407.221L387.733 219H403.285L409.333 197.304H436.789L442.933 219ZM413.077 183.864L421.141 155.16H424.981L433.045 183.864H413.077ZM510.465 151.32H450.849V164.76H473.025V219H488.385V164.76H510.465V151.32ZM566.542 151.32V179.352H532.558V151.32H517.198V219H532.558V192.792H566.542V219H581.902V151.32H566.542ZM589.55 185.112C589.55 204.888 602.606 219.96 624.11 219.96C645.518 219.96 658.574 204.888 658.574 185.112C658.574 165.432 645.518 150.36 624.11 150.36C602.606 150.36 589.55 165.432 589.55 185.112ZM604.91 185.112C604.91 172.152 611.342 163.8 624.11 163.8C636.878 163.8 643.214 172.152 643.214 185.112C643.214 198.168 636.878 206.52 624.11 206.52C611.342 206.52 604.91 198.168 604.91 185.112ZM667.291 219H682.651V164.76L679.771 155.16H683.611L704.059 219H734.299V151.32H718.939V205.56L721.819 215.16H717.979L697.531 151.32H667.291V219Z" fill="#A7B2FF"/>
<path d="M1147.12 589.104H1167.6C1167.6 571.824 1174.51 564.4 1190 564.4C1201.65 564.4 1205.49 570.16 1205.49 575.92C1205.49 595.888 1157.62 600.88 1148.4 602.16V638H1225.97V620.08H1166.32L1153.52 623.92V618.8C1195.76 610.992 1225.97 607.152 1225.97 576.816C1225.97 557.104 1211.12 546.48 1189.74 546.48C1166.06 546.48 1147.12 558.768 1147.12 589.104ZM1279.77 546.48C1252.37 546.48 1236.25 565.296 1236.25 592.816C1236.25 620.464 1252.37 639.28 1279.77 639.28C1307.03 639.28 1323.16 620.464 1323.16 592.816C1323.16 565.296 1307.03 546.48 1279.77 546.48ZM1279.77 564.4C1284.76 564.4 1289.11 565.552 1292.57 567.856L1258.13 604.592C1257.24 601.136 1256.73 597.296 1256.73 592.816C1256.73 574.256 1265.3 564.4 1279.77 564.4ZM1279.77 621.36C1274.77 621.36 1270.42 620.208 1266.84 617.776L1301.27 581.04C1302.17 584.496 1302.68 588.464 1302.68 592.816C1302.68 611.504 1294.23 621.36 1279.77 621.36ZM1333.37 589.104H1353.85C1353.85 571.824 1360.76 564.4 1376.25 564.4C1387.9 564.4 1391.74 570.16 1391.74 575.92C1391.74 595.888 1343.87 600.88 1334.65 602.16V638H1412.22V620.08H1352.57L1339.77 623.92V618.8C1382.01 610.992 1412.22 607.152 1412.22 576.816C1412.22 557.104 1397.37 546.48 1375.99 546.48C1352.31 546.48 1333.37 558.768 1333.37 589.104ZM1422.5 589.104H1442.98C1442.98 571.824 1449.89 564.4 1465.38 564.4C1477.02 564.4 1480.86 570.16 1480.86 575.92C1480.86 595.888 1432.99 600.88 1423.78 602.16V638H1501.34V620.08H1441.7L1428.9 623.92V618.8C1471.14 610.992 1501.34 607.152 1501.34 576.816C1501.34 557.104 1486.5 546.48 1465.12 546.48C1441.44 546.48 1422.5 558.768 1422.5 589.104Z" fill="#A7B2FF"/>
<mask id="mask1_191_83" style="mask-type:alpha" maskUnits="userSpaceOnUse" x="554" y="351" width="359" height="489">
<rect x="554" y="351" width="359" height="489" fill="#DF4E38"/>
</mask>
<g mask="url(#mask1_191_83)">
<rect x="558" y="351" width="355" height="489" fill="#DF4E38"/>
</g>
<path fill-rule="evenodd" clip-rule="evenodd" d="M554 840C692.071 840 804 730.534 804 595.5C804 460.466 692.071 351 554 351V840Z" fill="#E3AA22"/>
<path fill-rule="evenodd" clip-rule="evenodd" d="M554 840C692.071 840 804 730.534 804 595.5C804 460.466 692.071 351 554 351V840Z" fill="#E3AA22"/>
<path fill-rule="evenodd" clip-rule="evenodd" d="M554 721C623.036 721 679 665.036 679 596C679 526.964 623.036 471 554 471V721Z" fill="#E5BB57"/>
</svg>
