<svg width="50" height="50" viewBox="0 0 74 62" fill="none" xmlns="http://www.w3.org/2000/svg">
<path d="M32.8804 39.6081C25.1547 36.7144 17.7928 32.2833 11.3819 26.7073C8.57579 24.2705 5.73588 21.2325 4.95558 17.2261C4.62386 15.5235 4.69605 13.6121 5.285 11.9791C5.43912 11.5488 5.62589 11.0804 5.88026 10.707C7.17275 8.8019 6.05673 10.4792 6.19136 10.4349C7.22719 10.1121 8.63079 10.5424 9.63338 10.8715C13.8036 12.2197 17.4061 15.6628 20.4849 18.9223C23.7837 22.4224 26.5996 26.3971 28.9445 30.7263C29.4802 31.72 33.7558 28.9795 33.7059 27.9415C33.5054 23.8022 33.6458 19.6692 34.194 15.5678C34.6885 11.8716 35.2476 7.49178 37.0357 4.24488C37.1961 3.95374 37.3714 3.6689 37.5553 3.39674C37.6315 3.40307 37.714 3.40939 37.8114 3.41572C38.3431 3.88408 38.9881 4.11195 39.482 4.72588C40.4451 5.9221 41.128 7.55505 41.6636 9.02975C42.8616 12.3336 43.2432 15.916 43.081 19.454C42.7293 27.1567 40.056 34.1239 37.3158 41.0746C35.8222 40.6455 34.343 40.1563 32.8804 39.6081ZM73.9574 58.7648C70.3951 51.7717 64.4036 46.6824 57.3608 44.6994C53.2674 43.5469 49.0238 43.319 44.8507 42.7057C43.4763 42.5038 42.1099 42.2474 40.7527 41.9455C43.5858 34.6504 46.7499 27.4668 47.6466 19.5046C48.2997 13.7134 47.8774 6.33984 44.2297 1.70052C40.759 -2.71728 34.6209 2.44738 32.5618 6.14365C30.7508 9.39687 30.0909 13.5235 29.5426 17.2388C29.3793 18.3464 29.2464 19.454 29.1416 20.5616C27.9969 19.0299 26.7811 17.5552 25.4852 16.1628C22.4694 12.9222 18.9523 9.5867 14.9614 7.92844C8.16101 5.10561 -0.90357 10.6564 0.0726685 19.3274C0.585996 23.8908 3.76679 27.2833 6.89774 29.9605C10.4498 32.9986 14.2717 35.698 18.2437 38.0119C23.8903 41.3019 29.7208 43.519 35.7925 44.9639C33.7031 50.3824 31.8268 55.8743 31.2235 61.7788C31.1376 62.6238 35.8423 60.7661 35.9981 59.2357C36.4811 54.5135 37.7736 50.0697 39.3365 45.7178C41.093 46.0475 42.8691 46.3196 44.6686 46.5393C49.7062 47.1545 54.7277 47.9482 59.2268 50.6925C63.4434 53.2653 66.8551 57.1712 69.2092 61.7934C69.7248 62.8054 74.4977 59.8262 73.9574 58.7648Z" fill="#FF3535"/>
</svg>
