<svg width="595" height="111" viewBox="0 0 595 111" fill="none" xmlns="http://www.w3.org/2000/svg">
<path d="M0.672 48H15.52C26.464 48 33.312 45.12 33.312 36.032C33.312 27.968 27.872 25.152 20.96 25.024V23.488C25.632 23.168 29.984 20.48 29.984 13.952C29.984 5.056 23.648 2.88 12.64 2.88H0.672V48ZM5.92 22.272V7.36H12.832C20.192 7.36 24.736 7.808 24.736 14.784C24.736 21.184 20.192 22.272 12.832 22.272H5.92ZM5.92 43.52V26.752H15.712C23.392 26.752 28.064 28.544 28.064 35.136C28.064 42.24 23.392 43.52 15.712 43.52H5.92ZM39.3295 31.68C39.3295 40.832 44.1295 48.64 55.5215 48.64C65.6335 48.64 69.4735 41.792 70.6895 36.864H65.4415C64.2895 41.728 60.7695 44.288 55.5215 44.288C47.6495 44.288 44.7695 39.104 44.4495 33.088H69.6015V31.04C69.6015 21.248 63.7135 15.552 54.7535 15.552C45.7295 15.552 39.3295 21.44 39.3295 31.68ZM44.4495 29.12C44.4495 24 48.4815 19.968 54.7535 19.968C61.0895 19.968 64.4815 24 64.4815 29.12H44.4495ZM76.642 32.064C76.642 41.28 82.594 48.64 92.898 48.64C99.042 48.64 106.914 45.184 107.746 35.968H102.434C101.538 42.048 97.506 44.16 92.898 44.16C85.346 44.16 81.89 38.656 81.89 32.064C81.89 25.536 85.346 20.032 92.898 20.032C97.506 20.032 101.538 22.144 102.434 28.224H107.746C106.914 19.008 99.042 15.552 92.898 15.552C82.594 15.552 76.642 22.912 76.642 32.064ZM113.705 32.064C113.705 41.344 120.361 48.64 130.537 48.64C140.649 48.64 147.241 41.344 147.241 32.064C147.241 22.848 140.649 15.552 130.537 15.552C120.361 15.552 113.705 22.848 113.705 32.064ZM118.953 32.064C118.953 25.472 122.985 20.032 130.537 20.032C138.025 20.032 142.057 25.472 142.057 32.064C142.057 38.72 138.025 44.16 130.537 44.16C122.985 44.16 118.953 38.72 118.953 32.064ZM193.715 15.552C186.931 15.552 183.603 19.456 182.323 25.216H181.363C180.659 19.52 177.587 15.552 171.827 15.552C165.043 15.552 161.715 19.456 160.435 25.216H158.963L159.795 21.632V16.192H154.547V48H159.795V33.984C159.795 25.664 163.571 20.032 169.907 20.032C175.091 20.032 176.435 23.04 176.435 29.184V48H181.683V33.984C181.683 25.664 185.459 20.032 191.795 20.032C196.979 20.032 198.323 23.04 198.323 29.184V48H203.571V27.968C203.571 20.864 200.371 15.552 193.715 15.552ZM210.705 31.68C210.705 40.832 215.505 48.64 226.897 48.64C237.009 48.64 240.849 41.792 242.065 36.864H236.817C235.665 41.728 232.145 44.288 226.897 44.288C219.025 44.288 216.145 39.104 215.825 33.088H240.977V31.04C240.977 21.248 235.089 15.552 226.128 15.552C217.105 15.552 210.705 21.44 210.705 31.68ZM215.825 29.12C215.825 24 219.857 19.968 226.128 19.968C232.465 19.968 235.857 24 235.857 29.12H215.825ZM270.08 39.168C270.08 42.496 271.488 48.64 280.704 48.64C288.384 48.64 291.776 44.096 292.992 39.232H294.528L293.696 42.56V44.288C293.696 46.656 295.04 48 297.472 48H303.104V43.52H298.432V29.952C298.432 21.44 293.12 15.552 284.224 15.552C275.2 15.552 270.208 21.44 270.208 28.032H275.328C275.328 22.016 279.616 19.968 284.224 19.968C289.728 19.968 292.864 22.848 293.184 28.672L280.512 29.888C273.088 30.656 270.08 34.112 270.08 39.168ZM275.328 38.528C275.328 35.392 277.376 34.176 281.408 33.792L293.184 32.576C293.184 39.168 288.576 44.16 281.344 44.16C277.632 44.16 275.328 42.176 275.328 38.528ZM369.653 15.552C362.869 15.552 359.541 19.456 358.261 25.216H357.301C356.597 19.52 353.525 15.552 347.765 15.552C340.981 15.552 337.653 19.456 336.373 25.216H334.901L335.733 21.632V16.192H330.485V48H335.733V33.984C335.733 25.664 339.509 20.032 345.845 20.032C351.029 20.032 352.373 23.04 352.373 29.184V48H357.621V33.984C357.621 25.664 361.397 20.032 367.733 20.032C372.917 20.032 374.261 23.04 374.261 29.184V48H379.509V27.968C379.509 20.864 376.309 15.552 369.653 15.552ZM386.642 31.68C386.642 40.832 391.442 48.64 402.834 48.64C412.946 48.64 416.786 41.792 418.002 36.864H412.754C411.602 41.728 408.082 44.288 402.834 44.288C394.962 44.288 392.082 39.104 391.762 33.088H416.914V31.04C416.914 21.248 411.026 15.552 402.066 15.552C393.042 15.552 386.642 21.44 386.642 31.68ZM391.762 29.12C391.762 24 395.794 19.968 402.066 19.968C408.402 19.968 411.794 24 411.794 29.12H391.762ZM464.403 15.552C457.619 15.552 454.291 19.456 453.011 25.216H452.051C451.347 19.52 448.275 15.552 442.515 15.552C435.731 15.552 432.403 19.456 431.123 25.216H429.651L430.483 21.632V16.192H425.235V48H430.483V33.984C430.483 25.664 434.259 20.032 440.595 20.032C445.779 20.032 447.123 23.04 447.123 29.184V48H452.371V33.984C452.371 25.664 456.147 20.032 462.483 20.032C467.667 20.032 469.011 23.04 469.011 29.184V48H474.259V27.968C474.259 20.864 471.059 15.552 464.403 15.552ZM482.672 48H487.92V43.328L487.088 39.744H488.56C489.904 44.672 494.192 48.64 501.488 48.64C510.704 48.64 516.592 41.536 516.592 32.064C516.592 22.656 510.704 15.552 501.488 15.552C494.192 15.552 489.904 19.52 488.56 24.512H487.088L487.92 20.864V0.959999H482.672V48ZM487.92 32.064C487.92 23.616 493.36 20.032 499.888 20.032C506.48 20.032 511.344 23.616 511.344 32.064C511.344 40.576 506.48 44.16 499.888 44.16C493.36 44.16 487.92 40.576 487.92 32.064ZM522.58 31.68C522.58 40.832 527.38 48.64 538.772 48.64C548.884 48.64 552.724 41.792 553.94 36.864H548.692C547.54 41.728 544.02 44.288 538.772 44.288C530.9 44.288 528.02 39.104 527.7 33.088H552.852V31.04C552.852 21.248 546.964 15.552 538.003 15.552C528.98 15.552 522.58 21.44 522.58 31.68ZM527.7 29.12C527.7 24 531.732 19.968 538.003 19.968C544.34 19.968 547.732 24 547.732 29.12H527.7ZM561.172 48H566.42V20.096L583.252 20.672V16.192L565.588 15.616C562.58 15.488 561.172 16.96 561.172 19.968V48ZM589.624 48.64C592.568 48.64 594.936 46.336 594.936 43.264C594.936 40.32 592.568 38.016 589.624 38.016C586.616 38.016 584.312 40.32 584.312 43.264C584.312 46.336 586.616 48.64 589.624 48.64ZM152.94 69.36V64.88H127.532V69.36H137.644V105.52H127.532V110H152.94V105.52H142.892V69.36H152.94ZM168.134 106.224V82.672H178.054V78.192H168.134V68.4L162.95 70V78.192H155.91V82.672H162.95V106.288C162.95 109.232 164.294 110.832 167.302 110.64L179.334 110V105.52L168.134 106.224ZM190.411 62.256L186.251 77.936L190.859 79.152L195.083 63.472L190.411 62.256ZM223.949 101.744C223.949 94.896 217.165 93.488 210.893 91.44C205.773 89.776 203.597 88.816 203.597 85.744C203.597 82.864 206.413 81.84 209.933 81.84C214.989 81.84 217.613 83.952 217.613 88.24H222.861C222.861 82.992 219.853 77.552 209.933 77.552C202.637 77.552 198.349 80.88 198.349 85.936C198.349 91.696 203.213 93.552 209.229 95.472C214.413 97.072 218.701 97.776 218.701 101.936C218.701 105.2 216.397 106.352 211.469 106.352C205.325 106.352 202.125 103.792 202.125 98.288H196.877C196.877 105.84 201.101 110.64 211.405 110.64C220.941 110.64 223.949 106.544 223.949 101.744ZM267.601 67.44H273.361V62.96H267.857C260.241 62.96 257.105 66.992 257.105 73.328V78.192H250.065V82.672H257.105V105.52H250.065V110H271.569V105.52H262.289V82.672H271.569V78.192H262.289V73.456C262.289 69.296 263.569 67.44 267.601 67.44ZM279.36 110H284.608V82.096L301.44 82.672V78.192L283.776 77.616C280.768 77.488 279.36 78.96 279.36 81.968V110ZM304.08 93.68C304.08 102.832 308.88 110.64 320.272 110.64C330.384 110.64 334.224 103.792 335.44 98.864H330.192C329.04 103.728 325.52 106.288 320.272 106.288C312.4 106.288 309.52 101.104 309.2 95.088H334.352V93.04C334.352 83.248 328.464 77.552 319.503 77.552C310.48 77.552 304.08 83.44 304.08 93.68ZM309.2 91.12C309.2 86 313.232 81.968 319.503 81.968C325.84 81.968 329.232 86 329.232 91.12H309.2ZM341.392 93.68C341.392 102.832 346.192 110.64 357.584 110.64C367.696 110.64 371.536 103.792 372.752 98.864H367.504C366.352 103.728 362.832 106.288 357.584 106.288C349.712 106.288 346.832 101.104 346.512 95.088H371.664V93.04C371.664 83.248 365.776 77.552 356.816 77.552C347.792 77.552 341.392 83.44 341.392 93.68ZM346.512 91.12C346.512 86 350.544 81.968 356.816 81.968C363.152 81.968 366.544 86 366.544 91.12H346.512ZM384.189 64.88L384.765 94.512H388.797L389.437 64.88H384.189ZM386.749 110.64C389.693 110.64 392.061 108.336 392.061 105.264C392.061 102.32 389.693 100.016 386.749 100.016C383.741 100.016 381.437 102.32 381.437 105.264C381.437 108.336 383.741 110.64 386.749 110.64Z" fill="white"/>
</svg>