<svg  width="45" height="45" viewBox="0 0 65 104" fill="none" xmlns="http://www.w3.org/2000/svg">
<path d="M50.1972 30.4913C53.2158 30.7308 55.9949 30.9704 58.774 31.21C59.3969 31.2579 60.0198 31.3537 60.5468 31.5933C61.601 32.0246 62.128 32.887 62.2239 34.0849C62.3197 35.6661 62.0322 37.1515 61.4572 38.5889C60.7864 40.3139 60.0677 41.9909 59.2531 43.62C57.2886 47.6449 55.1324 51.5739 52.7846 55.4071C48.1368 62.8818 43.537 70.3087 39.033 77.8792C36.8768 81.4729 35.1039 85.2582 33.0915 88.8997C31.0791 92.5892 28.9708 96.2786 26.9584 99.9681C25.8563 102.028 23.9876 103.035 21.9273 103.658C19.5316 104.376 17.04 102.939 16.2733 100.543C15.6983 98.7223 15.6504 96.8536 16.3692 95.1287C17.6629 92.0142 19.1482 88.9955 20.6336 85.9769C21.1127 85.0186 21.8794 84.252 22.8377 83.677C24.2751 82.8145 25.0418 83.102 25.4251 84.6832C25.473 84.8269 25.473 84.9707 25.5688 85.354C25.9043 84.8748 26.1438 84.5874 26.3355 84.2519C29.5458 79.0771 32.4686 73.7106 35.1039 68.2004C39.2246 59.5757 43.8245 51.2385 48.4243 42.8534C49.0951 41.6076 49.9097 40.4576 50.6284 39.2118C50.8201 38.8764 51.0117 38.5889 51.2513 38.1577C49.5743 38.0618 48.041 37.966 46.5556 37.8702C46.1244 37.8223 45.8848 38.0618 45.6452 38.4452C45.0703 39.3556 44.4953 40.2659 43.9203 41.1763C42.7224 43.1888 40.9496 44.0991 38.6017 43.9075C37.9309 43.8596 37.2122 43.8596 36.5414 43.6679C34.7206 43.2367 33.8102 41.6076 34.2894 39.7868C34.4331 39.2597 34.6727 38.7806 34.9123 38.3014C39.4642 30.1559 43.9682 22.0582 48.5681 13.9606C49.9097 11.6127 51.443 9.36074 52.8804 7.01291C53.0721 6.6775 53.2637 6.39001 53.5033 5.95877C52.8325 5.91086 52.3534 5.91086 51.8263 5.81503C50.6284 5.62337 50.0055 4.95256 49.8618 3.89843C49.7659 3.08387 50.0534 2.55681 50.8201 2.2214C51.2992 2.02974 51.6346 1.69434 52.0179 1.40685C52.4492 1.07144 53.0721 0.736035 53.6471 0.736035C55.947 0.59229 58.1511 0.49646 60.4031 0.49646C61.2176 0.49646 62.0801 0.640205 62.8947 0.831865C64.5717 1.21519 65.3383 2.46098 64.8592 4.09009C64.6196 4.95256 64.2363 5.81503 63.7092 6.58167C61.8405 9.16908 60.2114 11.9482 58.774 14.871C56.3303 19.8062 53.695 24.5977 50.868 29.2934C50.6763 29.6288 50.4847 29.9642 50.1972 30.4913Z" fill="#1A1A1A"/>
<path d="M14.6923 50.5197C13.2548 50.6156 11.9132 50.7114 10.5237 50.7593C8.36751 50.9031 6.16342 51.0468 4.00724 51.1426C3.52809 51.1905 3.09686 51.1905 2.61771 51.1426C0.749019 50.951 -0.305112 49.4656 0.0782085 47.6448C0.126124 47.4532 0.174039 47.2615 0.269869 47.1178C2.42605 41.4638 3.95933 35.6661 5.39678 29.8204C7.02589 23.3519 8.70292 16.8834 10.3799 10.4628C10.7153 9.21697 11.0987 7.97118 11.4341 6.72539C11.9132 5.04836 12.8715 3.94632 14.6923 3.75466C16.6089 3.56299 18.4776 3.22759 20.3942 3.08384C29.0189 2.55678 37.6436 1.59848 46.2204 0.592262C48.3766 0.352687 50.5807 0.161027 52.7368 0.017282C53.5035 -0.0306331 54.2701 0.017282 54.9888 0.208942C56.8096 0.640177 57.5763 2.36512 56.8575 4.04215C56.618 4.56921 56.2825 5.04836 55.9471 5.52751C55.0847 6.86913 54.2222 8.16284 53.4076 9.50446C51.2036 13.2418 49.0474 16.9792 46.7954 20.6687C44.5434 24.3581 42.2434 28.0476 39.9435 31.737C39.2727 32.7912 38.6019 33.7974 37.9311 34.8036C37.7394 35.0911 37.5478 35.4265 37.2603 35.9056C37.7394 35.9056 38.0269 35.9056 38.3144 35.9056C42.2914 35.9536 46.2683 35.9536 50.2453 36.0015C50.5327 36.0015 50.8681 36.0494 51.1556 36.0973C52.9764 36.4806 53.8868 38.1577 53.216 39.8826C52.9764 40.5055 52.5452 41.0805 52.1139 41.6075C50.1494 44.195 48.137 46.7344 46.2204 49.3698C45.31 50.6156 44.4955 52.0051 43.7767 53.3946C39.8956 60.7736 36.0624 68.1046 32.2771 75.5314C28.3481 83.1499 24.5149 90.8642 20.6338 98.4827C20.3463 99.0577 20.0109 99.6326 19.5317 100.112C18.3818 101.31 16.8485 101.214 15.6506 100.112C14.7881 99.2972 14.309 98.3389 14.2611 97.189C14.1173 95.0328 13.9257 92.8287 13.9736 90.6246C14.1173 82.7666 14.4048 74.9085 14.5485 67.0504C14.6444 61.7318 14.6444 56.4133 14.6923 51.0947C14.7881 50.951 14.7402 50.7593 14.6923 50.5197Z" fill="#64B148"/>
</svg>
