<svg width="214" height="312" viewBox="0 0 214 312" fill="none" xmlns="http://www.w3.org/2000/svg">
<path d="M185.603 160.986C186.816 160.878 187.682 161.098 188.376 160.789C216.808 155.391 244.381 147.691 270.068 134.162C281.696 128.026 292.117 120.263 302.02 111.951C304.626 109.836 307.578 107.741 310.357 105.81C311.398 105.172 312.787 104.553 314 104.446C314.693 104.483 315.904 105.069 316.248 105.782C316.592 106.495 316.068 107.681 315.547 108.173C291.741 129.265 265.349 146.572 234.306 155.82C218.351 160.507 202.397 164.846 185.928 167.597C184.195 167.85 181.767 168.412 180.897 169.58C169.586 184.755 154.132 194.848 137.474 202.62C111.792 214.761 85.5944 225.659 59.5682 237.087C58.0063 237.87 56.0979 238.634 54.5326 240.458C73.5797 243.92 92.6279 247.036 112.021 250.517C111.491 253.785 109.755 254.732 107.502 255.13C104.901 255.51 102.127 256.053 99.3559 255.903C84.113 254.729 68.8701 253.555 53.6284 252.034C50.3376 251.682 47.0491 250.636 43.9345 249.426C37.8789 246.842 36.5102 241.562 40.3382 236.565C47.9932 226.916 55.6471 217.615 63.6474 208.332C65.909 205.505 68.5092 205.126 70.756 206.809C72.6564 208.474 72.9937 211.268 70.9048 214.278C67.2493 219.459 63.2486 224.274 59.0718 229.946C60.4588 229.675 61.1517 229.712 61.8457 229.403C87.3551 217.079 113.037 204.938 138.375 192.085C146.011 188.335 152.959 182.812 159.905 177.984C162.684 176.052 164.945 173.225 168.074 170.272C165.822 169.976 164.09 169.882 162.704 169.807C151.615 169.9 140.357 168.768 129.453 165.574C119.76 162.619 111.112 157.986 104.034 150.141C101.791 147.416 99.3747 144.509 97.6527 141.292C89.9024 127.165 93.9372 111.941 107.651 103.836C124.491 93.471 155.682 92.0399 175.71 113.601C187.105 125.671 190.35 139.901 187.007 155.509C186.655 157.225 186.129 159.106 185.603 160.986ZM108.728 145.364C115.463 152.149 122.726 156.36 130.861 158.71C143.669 162.875 156.834 163.589 169.83 163.08C172.775 163.066 174.339 161.589 175.733 159.236C182.532 146.591 179.472 128.727 168.937 118.265C154.603 104.127 128.627 100.289 111.962 110.143C100.679 116.644 98.0423 128.127 104.761 139.769C106.14 141.926 107.866 144.102 108.728 145.364Z" fill="#4759D1"/>
</svg>
