<svg width="178" height="160" viewBox="0 0 178 160" fill="none" xmlns="http://www.w3.org/2000/svg">
<path d="M147.603 64.9857C148.816 64.878 149.682 65.0985 150.376 64.7891C178.808 59.391 206.381 51.6906 232.068 38.1621C243.696 32.0259 254.117 24.2627 264.02 15.9508C266.626 13.8365 269.578 11.741 272.357 9.80955C273.398 9.17201 274.787 8.55326 276 8.44556C276.693 8.48315 277.904 9.06937 278.248 9.78209C278.592 10.4948 278.068 11.681 277.547 12.1732C253.741 33.2649 227.349 50.5725 196.306 59.8197C180.351 64.5065 164.397 68.8464 147.928 71.5968C146.195 71.8498 143.767 72.4121 142.897 73.5795C131.586 88.7555 116.132 98.8484 99.4742 106.62C73.7921 118.761 47.5944 129.659 21.5682 141.087C20.0063 141.87 18.0979 142.634 16.5326 144.458C35.5797 147.92 54.6279 151.036 74.0214 154.517C73.4909 157.785 71.7552 158.732 69.5015 159.13C66.9014 159.51 64.1275 160.053 61.3559 159.903C46.113 158.729 30.8701 157.555 15.6284 156.034C12.3376 155.682 9.04915 154.636 5.93447 153.426C-0.121095 150.842 -1.48985 145.562 2.33822 140.565C9.99323 130.916 17.6471 121.615 25.6474 112.332C27.909 109.505 30.5092 109.126 32.756 110.809C34.6564 112.474 34.9937 115.268 32.9048 118.278C29.2493 123.459 25.2486 128.274 21.0718 133.946C22.4588 133.675 23.1517 133.712 23.8457 133.403C49.3551 121.079 75.0371 108.938 100.375 96.085C108.011 92.3349 114.959 86.8124 121.905 81.9839C124.684 80.0525 126.945 77.2255 130.074 74.272C127.822 73.9763 126.09 73.8823 124.704 73.8072C113.615 73.8997 102.357 72.7684 91.4525 69.5741C81.7598 66.6192 73.112 61.9858 66.0342 54.1408C63.7908 51.4164 61.3747 48.5091 59.6527 45.2925C51.9024 31.1646 55.9372 15.9409 69.6512 7.83577C86.4912 -2.52897 117.682 -3.96012 137.71 17.6007C149.105 29.6707 152.35 43.9012 149.007 59.5095C148.655 61.2255 148.129 63.1056 147.603 64.9857ZM70.7278 49.3635C77.4626 56.1488 84.7257 60.3601 92.8611 62.7101C105.669 66.8751 118.834 67.5893 131.83 67.0797C134.775 67.066 136.339 65.5892 137.733 63.2357C144.532 50.5911 141.472 32.7269 130.937 22.2652C116.603 8.12718 90.6271 4.28885 73.962 14.1425C62.6789 20.6445 60.0423 32.1267 66.7612 43.7695C68.1402 45.9264 69.8657 48.1022 70.7278 49.3635Z" fill="#A7B2FF"/>
</svg>
