<svg width="331" height="338" viewBox="0 0 331 338" fill="none" xmlns="http://www.w3.org/2000/svg">
<path d="M154.485 126.075C130.497 111.155 120.302 90.1993 114.305 67.3995C110.906 54.6584 109.307 41.7497 111.306 28.6733C112.106 23.141 113.305 17.7763 116.104 12.747C117.903 9.72935 119.902 6.87937 122.701 4.36469C127.898 -0.329392 135.095 -1.16762 142.091 1.51471C146.489 3.19117 150.087 6.04114 153.086 9.05877C158.284 14.4234 162.082 20.4587 165.08 26.8292C173.076 43.5938 175.675 61.1966 175.275 79.3023C174.875 91.3728 173.276 103.443 170.278 115.178C170.078 116.017 170.078 116.687 169.878 117.693C175.475 120.04 181.472 120.543 187.669 120.711C213.457 121.717 238.645 118.531 263.033 111.49C271.029 109.143 278.825 106.461 286.422 103.276C301.214 97.408 313.808 88.8581 323.803 78.1288C325.603 76.2847 327.402 74.4406 329.401 72.5965C329.601 72.4288 330 72.4288 331 72.4288C330.6 73.6024 330.4 74.4406 330 75.2788C322.204 89.1934 310.81 100.426 295.617 109.143C276.626 119.873 255.636 126.578 233.447 130.267C215.256 133.284 197.065 134.625 178.674 132.781C174.676 132.446 170.478 131.608 166.08 130.937C165.68 131.775 165.28 132.781 164.88 133.787C159.483 149.043 153.086 163.796 143.891 177.71C136.494 188.943 127.898 199.337 116.904 208.389C110.906 213.251 104.31 217.61 96.9132 220.795C77.9224 228.842 60.5308 226.328 46.1378 213.251C45.3382 212.581 44.5385 211.91 43.3391 210.904C42.5395 212.748 41.9398 214.089 41.1402 215.598C35.9427 227.669 30.1455 239.572 22.7491 250.972C16.3522 260.695 8.95576 269.915 -0.639603 277.795C-5.23737 281.651 -10.235 284.836 -16.0322 287.351C-30.0254 293.218 -43.4189 292.38 -56.2127 284.668C-58.6116 283.327 -60.6106 281.651 -63.2093 279.974C-64.009 281.818 -64.6087 283.159 -65.2084 284.668C-70.6058 298.08 -77.2026 311.324 -85.3986 323.73C-87.3976 326.915 -89.7965 329.933 -92.3952 332.783C-93.5946 334.291 -95.5937 335.297 -97.3928 336.471C-98.992 337.309 -100.791 337.309 -102.19 335.968C-103.59 334.627 -102.99 333.286 -101.791 331.944C-99.3918 329.094 -97.1929 326.077 -95.1939 323.059C-85.1987 307.803 -77.6024 291.709 -71.4054 275.28C-70.8057 273.771 -70.4059 272.263 -71.8052 270.754C-84.7989 255.33 -91.5956 237.895 -95.7936 219.454C-101.791 193.804 -102.99 167.819 -99.3918 141.834C-98.1924 132.949 -96.1934 124.399 -91.7955 116.184C-90.1963 113.167 -88.1973 110.149 -85.7984 107.634C-79.8013 101.432 -71.6053 101.096 -64.4088 106.461C-60.0109 109.814 -57.0123 113.837 -54.6135 118.364C-49.6159 127.081 -46.8173 136.469 -45.0181 146.025C-41.4199 164.299 -41.4199 182.572 -43.6188 201.013C-46.2176 223.478 -51.415 245.607 -58.6116 267.233C-59.4112 269.748 -59.4112 271.592 -56.8124 273.268C-53.614 275.448 -50.6154 277.962 -47.2171 279.807C-39.6208 283.83 -31.6246 284.165 -23.4286 281.148C-17.8313 279.136 -13.2335 276.118 -9.03554 272.598C-1.63911 266.73 4.15807 259.857 9.55547 252.648C20.7501 237.225 28.9461 220.628 35.7428 203.528C36.3425 202.019 36.5424 200.845 35.5429 199.337C26.5473 184.081 22.5492 167.652 20.5501 150.887C18.3512 132.781 18.5511 114.676 22.1494 96.7375C23.5487 89.864 25.3478 82.9905 28.7462 76.62C30.1455 73.9376 31.9446 71.2553 34.1436 69.0759C39.541 63.7113 47.1373 63.8789 52.1349 69.4112C54.5337 72.0935 56.3329 75.1112 57.7322 78.2964C61.5303 87.1817 62.7298 96.5698 63.5294 105.958C65.5284 135.967 59.5313 165.305 49.5361 193.972C49.1363 194.978 48.9364 195.984 48.3367 196.99C47.5371 198.666 47.9369 200.175 49.1363 201.516C51.935 204.534 54.5337 207.887 57.9321 210.401C65.7283 216.604 75.1237 218.113 85.1189 214.76C90.3164 213.084 95.314 210.401 99.9118 207.551C107.908 202.522 114.305 196.151 120.102 189.446C132.296 175.363 140.892 159.605 147.689 143.175C150.088 137.978 152.087 132.111 154.485 126.075ZM-67.0075 262.036C-66.4078 261.03 -66.2079 260.695 -66.008 260.192C-65.6082 259.354 -65.4083 258.348 -65.0085 257.51C-57.6121 235.548 -52.6145 213.084 -51.0152 190.284C-49.8158 173.687 -50.2156 157.09 -54.6135 140.661C-56.6125 133.284 -58.8115 126.075 -63.2093 119.37C-65.2084 116.52 -67.6072 113.837 -70.4059 111.49C-73.0046 109.311 -76.0032 109.479 -78.2021 112.161C-80.2011 114.508 -82.0003 117.19 -83.1997 119.873C-87.5975 129.093 -89.1968 138.817 -90.1963 148.708C-92.1953 170.334 -90.796 191.793 -86.3981 213.251C-83.1997 228.507 -78.6019 243.427 -70.206 257.342C-69.2064 258.516 -68.4068 260.024 -67.0075 262.036ZM158.084 111.826C158.683 109.814 159.083 108.473 159.283 107.299C160.083 102.605 161.082 98.0786 161.682 93.3846C163.881 76.4523 163.281 59.6878 158.284 43.0908C155.685 34.5409 152.087 26.4939 146.289 19.1175C144.09 16.4352 141.492 14.0881 138.693 11.9087C134.895 9.22641 132.296 9.897 129.697 13.4176C128.698 14.7587 127.898 16.2675 127.498 17.7763C126.499 21.6322 125.299 25.6557 124.9 29.6792C123.5 44.2644 125.899 58.5142 130.697 72.5965C134.895 84.667 141.092 95.8992 150.887 105.623C152.886 107.634 155.285 109.479 158.084 111.826ZM43.9388 74.6082C43.539 74.6082 42.9393 74.6082 42.5395 74.7759C41.54 76.2847 40.1407 77.6259 39.341 79.1347C37.9417 82.3199 36.3425 85.6728 35.343 89.0258C30.5453 105.12 29.7457 121.549 30.7452 138.146C31.5448 153.234 33.9437 168.322 39.1412 182.907C39.541 184.081 40.1407 185.254 40.7404 186.428C41.9398 185.087 42.7394 183.746 42.9393 182.404C45.3382 172.513 48.3367 162.79 50.1358 152.899C53.7341 134.961 54.9335 116.855 52.3348 98.9169C51.5352 92.8816 49.5361 86.8464 47.5371 80.9788C47.1373 78.6317 45.3382 76.62 43.9388 74.6082Z" fill="#4759D1"/>
</svg>
