<svg width="877" height="625" viewBox="0 0 877 625" fill="none" xmlns="http://www.w3.org/2000/svg">
<rect x="217" y="73" width="428" height="428" rx="18.5" fill="#0D1116" stroke="url(#paint0_linear_1330_242)" stroke-width="5"/>
<path d="M447.5 143H220" stroke="#D1D2D9"/>
<path d="M448 252.5H219" stroke="#D1D2D9"/>
<mask id="path-4-inside-1_1330_242" fill="white">
<path d="M447.5 75.5H627.5C635.784 75.5 642.5 82.2157 642.5 90.5V483.5C642.5 491.784 635.784 498.5 627.5 498.5H447.5V75.5Z"/>
</mask>
<path d="M447.5 75.5H642.5H447.5ZM642.5 498.5H447.5H642.5ZM446.5 498.5V75.5H448.5V498.5H446.5ZM642.5 75.5V498.5V75.5Z" fill="#D1D2D9" mask="url(#path-4-inside-1_1330_242)"/>
<path d="M475.536 470.63V474.718H470.58V470.63H468.34V480.5H470.58V476.678H475.536V480.5H477.776V470.63H475.536ZM487.456 470.63H478.762V472.59H481.996V480.5H484.236V472.59H487.456V470.63ZM488.438 480.5H490.678V472.59L490.258 471.19H490.818L492.4 480.5H496.74L498.322 471.19H498.882L498.462 472.59V480.5H500.702V470.63H496.292L494.85 479.94H494.29L492.848 470.63H488.438V480.5ZM503.314 480.64L509.152 480.5V478.54L504.35 478.68V470.63H502.11V479.464C502.11 480.234 502.544 480.654 503.314 480.64Z" fill="white"/>
<path d="M235.34 124.5H237.58V116.59L237.16 115.19H237.72L240.702 124.5H245.112V114.63H242.872V122.54L243.292 123.94H242.732L239.75 114.63H235.34V124.5ZM245.956 120.958C245.956 123.436 247.72 124.64 249.946 124.64C252.158 124.64 253.922 123.436 253.922 120.958C253.922 118.494 252.158 117.29 249.946 117.29C247.72 117.29 245.956 118.494 245.956 120.958ZM248.196 120.958C248.196 119.782 248.882 119.25 249.946 119.25C250.996 119.25 251.682 119.782 251.682 120.958C251.682 122.148 250.996 122.68 249.946 122.68C248.882 122.68 248.196 122.148 248.196 120.958ZM262.856 124.5V114.21H260.616V117.864L261.036 119.124H260.476C260.112 118.186 259.44 117.29 257.69 117.29C255.646 117.29 254.624 118.956 254.624 120.958C254.624 122.96 255.646 124.64 257.69 124.64C259.44 124.64 260.112 123.744 260.476 122.806H261.036L260.616 124.066V124.5H262.856ZM260.616 120.958C260.616 122.148 259.944 122.68 258.74 122.68C257.536 122.68 256.864 122.148 256.864 120.958C256.864 119.768 257.536 119.25 258.74 119.25C259.944 119.25 260.616 119.768 260.616 120.958ZM263.703 120.874C263.703 122.876 264.949 124.64 267.665 124.64C270.115 124.64 271.277 123.03 271.417 122.008H269.177C269.037 122.54 268.449 122.82 267.665 122.82C266.391 122.82 265.803 122.246 265.803 121.434H271.165V120.734C271.165 118.592 269.625 117.29 267.427 117.29C265.229 117.29 263.703 118.634 263.703 120.874ZM265.803 120.174C265.803 119.642 266.181 119.11 267.427 119.11C268.673 119.11 269.065 119.642 269.065 120.174H265.803ZM274.761 124.64C277.925 124.822 278.765 123.506 278.765 120.72V115.68C278.765 114.91 278.345 114.462 277.575 114.49L273.557 114.63V116.59L276.525 116.45V119.964C276.525 121.658 276.399 122.778 274.761 122.68L272.255 122.54V124.5L274.761 124.64ZM286.764 122.554C286.764 121.084 285.504 120.734 284.132 120.286C283.012 119.922 282.312 119.712 282.312 119.376C282.312 119.096 282.606 118.97 283.138 118.97C283.908 118.97 284.286 119.348 284.286 119.852H286.526C286.526 118.48 285.546 117.29 283.152 117.29C281.206 117.29 280.072 118.018 280.072 119.278C280.072 120.86 281.682 121.21 282.998 121.644C284.132 122.022 284.524 122.12 284.524 122.484C284.524 122.82 284.146 122.96 283.544 122.96C282.368 122.96 281.99 122.484 281.99 121.938H279.75C279.75 123.59 280.87 124.64 283.474 124.64C285.91 124.64 286.764 123.744 286.764 122.554Z" fill="white"/>
<path d="M235.2 229.558C235.2 232.442 237.132 234.64 240.268 234.64C243.026 234.64 244.846 233.128 245.14 230.678H242.9C242.676 231.98 241.64 232.68 240.296 232.68C238.574 232.68 237.44 231.602 237.44 229.558C237.44 227.528 238.574 226.45 240.296 226.45C241.64 226.45 242.676 227.136 242.9 228.438H245.14C244.846 226.002 243.026 224.49 240.268 224.49C237.132 224.49 235.2 226.688 235.2 229.558ZM254.944 231.784C254.944 229.726 252.158 228.942 250.338 228.326C248.756 227.794 248.518 227.626 248.518 227.178C248.518 226.674 249.148 226.45 250.156 226.45C251.374 226.45 252.298 226.786 252.298 227.99H254.538C254.538 226.03 253.18 224.49 250.156 224.49C247.608 224.49 246.278 225.414 246.278 227.094C246.278 229.026 247.972 229.586 250.058 230.286C251.5 230.776 252.704 231.098 252.704 231.812C252.704 232.344 252.228 232.68 250.786 232.68C248.826 232.68 248.07 232.204 248.07 230.692H245.83C245.83 233.184 247.16 234.64 250.716 234.64C253.754 234.64 254.944 233.478 254.944 231.784ZM264.897 231.784C264.897 229.726 262.111 228.942 260.291 228.326C258.709 227.794 258.471 227.626 258.471 227.178C258.471 226.674 259.101 226.45 260.109 226.45C261.327 226.45 262.251 226.786 262.251 227.99H264.491C264.491 226.03 263.133 224.49 260.109 224.49C257.561 224.49 256.231 225.414 256.231 227.094C256.231 229.026 257.925 229.586 260.011 230.286C261.453 230.776 262.657 231.098 262.657 231.812C262.657 232.344 262.181 232.68 260.739 232.68C258.779 232.68 258.023 232.204 258.023 230.692H255.783C255.783 233.184 257.113 234.64 260.669 234.64C263.707 234.64 264.897 233.478 264.897 231.784Z" fill="white"/>
<path d="M235.34 480.5H237.58V472.59L237.16 471.19H237.72L240.702 480.5H245.112V470.63H242.872V478.54L243.292 479.94H242.732L239.75 470.63H235.34V480.5ZM245.956 476.958C245.956 479.436 247.72 480.64 249.946 480.64C252.158 480.64 253.922 479.436 253.922 476.958C253.922 474.494 252.158 473.29 249.946 473.29C247.72 473.29 245.956 474.494 245.956 476.958ZM248.196 476.958C248.196 475.782 248.882 475.25 249.946 475.25C250.996 475.25 251.682 475.782 251.682 476.958C251.682 478.148 250.996 478.68 249.946 478.68C248.882 478.68 248.196 478.148 248.196 476.958ZM262.856 480.5V470.21H260.616V473.864L261.036 475.124H260.476C260.112 474.186 259.44 473.29 257.69 473.29C255.646 473.29 254.624 474.956 254.624 476.958C254.624 478.96 255.646 480.64 257.69 480.64C259.44 480.64 260.112 479.744 260.476 478.806H261.036L260.616 480.066V480.5H262.856ZM260.616 476.958C260.616 478.148 259.944 478.68 258.74 478.68C257.536 478.68 256.864 478.148 256.864 476.958C256.864 475.768 257.536 475.25 258.74 475.25C259.944 475.25 260.616 475.768 260.616 476.958ZM263.703 476.874C263.703 478.876 264.949 480.64 267.665 480.64C270.115 480.64 271.277 479.03 271.417 478.008H269.177C269.037 478.54 268.449 478.82 267.665 478.82C266.391 478.82 265.803 478.246 265.803 477.434H271.165V476.734C271.165 474.592 269.625 473.29 267.427 473.29C265.229 473.29 263.703 474.634 263.703 476.874ZM265.803 476.174C265.803 475.642 266.181 475.11 267.427 475.11C268.673 475.11 269.065 475.642 269.065 476.174H265.803ZM274.761 480.64C277.925 480.822 278.765 479.506 278.765 476.72V471.68C278.765 470.91 278.345 470.462 277.575 470.49L273.557 470.63V472.59L276.525 472.45V475.964C276.525 477.658 276.399 478.778 274.761 478.68L272.255 478.54V480.5L274.761 480.64ZM286.764 478.554C286.764 477.084 285.504 476.734 284.132 476.286C283.012 475.922 282.312 475.712 282.312 475.376C282.312 475.096 282.606 474.97 283.138 474.97C283.908 474.97 284.286 475.348 284.286 475.852H286.526C286.526 474.48 285.546 473.29 283.152 473.29C281.206 473.29 280.072 474.018 280.072 475.278C280.072 476.86 281.682 477.21 282.998 477.644C284.132 478.022 284.524 478.12 284.524 478.484C284.524 478.82 284.146 478.96 283.544 478.96C282.368 478.96 281.99 478.484 281.99 477.938H279.75C279.75 479.59 280.87 480.64 283.474 480.64C285.91 480.64 286.764 479.744 286.764 478.554Z" fill="white"/>
<path d="M220 303H96.5V110H-49" stroke="#4458E4" stroke-width="4"/>
<path d="M215 428.5H34.5V624.5" stroke="#4458E4" stroke-width="4"/>
<path d="M216 170.5H132.5V25H-27.5" stroke="#4458E4" stroke-width="4"/>
<path d="M595 503.5V584H876.5" stroke="#4458E4" stroke-width="4"/>
<path d="M395 74.5V2H800.5H874.5" stroke="#4458E4" stroke-width="4"/>
<defs>
<linearGradient id="paint0_linear_1330_242" x1="431" y1="70.5" x2="271.775" y2="1067.09" gradientUnits="userSpaceOnUse">
<stop stop-color="#4559E9"/>
<stop offset="1" stop-color="#5D6EEF" stop-opacity="0"/>
</linearGradient>
</defs>
</svg>
