<svg width="100%" height="auto" viewBox="0 0 106 133" fill="none" xmlns="http://www.w3.org/2000/svg">
<path d="M53 127.143V72.8571M53 127.143L6.33752 93.8125C5.92695 93.5193 5.72166 93.3726 5.61083 93.1573C5.5 92.9419 5.5 92.6896 5.5 92.1851V38.9286M53 127.143L99.6625 93.8125C100.073 93.5193 100.278 93.3726 100.389 93.1573C100.5 92.9419 100.5 92.6896 100.5 92.1851V38.9286M53 72.8571L5.5 38.9286M53 72.8571L100.5 38.9286M5.5 38.9286L51.8375 5.83034C52.3989 5.42938 52.6795 5.2289 53 5.2289C53.3205 5.2289 53.6011 5.42938 54.1625 5.83034L100.5 38.9286" stroke="#A7B2FF" stroke-width="10" stroke-linejoin="round"/>
</svg>
